<svg height="184.15768mm" viewBox="0 0 112.71251 184.15768" width="112.71251mm" xmlns="http://www.w3.org/2000/svg">
  <g stroke-width=".999999" transform="matrix(.26458333 0 0 .26458333 -168.48377 -358.29597)">
    <g fill="#F4C308">
      <path d="m792.65234 2021.2832 1.98438 2.75c1.09134 1.5125 4.14184 4.954 6.77734 7.6465 2.63554 2.6925 7.06091 6.3209 9.83399 8.0644 2.77307 1.7435 6.84099 4.0125 9.04101 5.043 2.19999 1.0305 6.70002 2.6565 10 3.6133 4.31815 1.252 9.82457 1.7611 19.64453 1.8125 11.15679.058 14.89462-.3113 20.5-2.0274 3.77042-1.1542 9.88457-3.6802 13.58594-5.6132 3.70133-1.933 9.61041-6.2771 13.13281-9.6524 3.52245-3.3752 7.18474-7.3742 8.13672-8.8867l1.73047-2.75h-57.18359z"/>
      <path d="m742.78906 1961.2832v22 22h107 107v-22-22h-107z"/>
      <path d="m742.78906 1902.2832v22 22h107 107v-22-22h-107z"/>
    </g>

    <g fill="#F4C308">
      <path d="m857.07227 1354.2832-.62891 5.75c-.34613 3.1625-1.05926 9.35-1.58594 13.75-.52664 4.4-1.68594 14.075-2.57617 21.5-.89027 7.425-2.01335 17.1-2.49414 21.5-.48083 4.4-1.37907 12.275-1.99805 17.5-.61901 5.225-1.52522 13.1-2.01172 17.5-.48653 4.4-1.61094 14.075-2.5 21.5-.88909 7.425-2.04262 17.1-2.5625 21.5-.51991 4.4-1.38233 12.05-1.91796 17-.5356 4.95-1.67735 14.85-2.53711 22-.85981 7.15-1.99772 16.6-2.52735 21-.52962 4.4-1.40088 12.05-1.9375 17-.53665 4.95-1.87082 16.65-2.96484 26s-2.68156 22.85-3.52735 30c-.84578 7.15-2.4369 20.875-3.53515 30.5-1.09829 9.625-2.67346 23.125-3.5 30-.82655 6.875-2.39122 20.375-3.47852 30-1.08729 9.625-2.67878 23.35-3.53711 30.5s-2.44128 20.65-3.51757 30c-1.07626 9.35-2.40119 21.05-2.94336 26-.54222 4.95-1.4577 13.0462-2.03321 17.9902s-1.47003 11.919-1.98828 15.5c-.51825 3.5811-.9496 7.5223-.96094 8.7598l-.0195 2.25h21.85547 21.85352l1.19922-10.75c.66051-5.9125 1.60707-14.125 2.10351-18.25.49648-4.125 1.39724-12 2-17.5.6028-5.5 1.54425-14.05 2.09375-19 .54947-4.95 1.62997-14.175 2.40039-20.5.77046-6.325 1.89293-16 2.49414-21.5.60125-5.5 1.52117-13.6 2.04297-18 .52177-4.4 1.87427-16.1 3.00586-26s2.47772-21.825 2.99219-26.5 2.05101-18.175 3.41406-30 3.84862-33.425 5.52344-48c1.67478-14.575 3.47651-30.55 4.0039-35.5.5274-4.95 1.38949-12.375 1.91602-16.5s1.46083-12 2.07617-17.5c.61542-5.5 1.52725-13.6 2.02539-18s1.40063-12.5 2.00782-18c.60718-5.5 1.76973-15.625 2.58203-22.5.81229-6.875 1.89097-16.1 2.39648-20.5s1.41182-12.5 2.01367-18 1.49821-13.6 1.99219-18c.49406-4.4 1.61742-14.075 2.49805-21.5.88059-7.425 2.03024-16.781 2.55468-20.791.52445-4.01.95508-8.3975.95508-9.75v-2.459h-21.35937z"/>
      <path d="m783.78906 1354.2832-24.75.023c-23.40347.023-25.04922.1466-30.25 2.2891-3.02498 1.2462-8.25324 4.1381-11.61914 6.4258-3.36589 2.2876-8.69955 6.9953-11.85156 10.4609-3.15201 3.4657-7.71734 9.6758-10.14648 13.8008-2.42915 4.125-5.35081 9.975-6.49219 13s-2.76806 8.425-3.61524 12c-1.2616 5.3236-1.66801 18.2638-2.24023 71.5-.60635 56.4091-.92493 65.9032-2.4082 71.832-.94005 3.7575-2.44038 8.7075-3.33594 11-.89556 2.2926-2.97974 6.0813-4.63086 8.42-1.65109 2.3387-4.61362 5.2436-6.58203 6.455-3.0785 1.8947-5.36096 2.2575-16.32813 2.5977l-12.75.3965v16.3984 16.4004l11.25.021c8.80959.017 12.11768.4248 15.25 1.875 2.19999 1.0186 5.20467 3.1467 6.67774 4.7285s3.78616 5.125 5.13867 7.875c1.35254 2.75 3.21614 8.0838 4.14258 11.8516.92643 3.7677 2.09499 10.7427 2.5957 15.5.50067 4.7572.9164 31.9184.92773 60.3593.0103 29.7749.47541 56.0756 1.09571 62 .59255 5.6591 1.99411 13.4391 3.11523 17.2891s3.74315 10.3949 5.82813 14.543c2.08497 4.1481 5.71039 9.9981 8.05468 13 2.34429 3.0018 6.29035 7.3487 8.76954 9.6601 2.47921 2.3115 7.68969 5.8089 11.58007 7.7735 3.89038 1.9645 9.0992 3.9632 11.57422 4.4394 2.47499.4763 14.96254.9142 27.75.9746l23.25.1094v-15.418-15.418l-17.25-.332c-15.18221-.2927-17.60958-.57-20.25-2.3145-1.64999-1.0901-4.26095-3.3002-5.80273-4.9121-1.54175-1.6118-3.89506-4.793-5.22852-7.0683-1.33341-2.2753-3.36476-7.0402-4.51562-10.5879-1.15091-3.5477-2.55751-8.6992-3.125-11.4492-.57687-2.7954-1.36043-29.6915-1.77735-61-.61508-46.1903-1.03008-57.2364-2.37109-63.0586-.8942-3.8824-2.5882-10.1823-3.76367-14-1.17551-3.8177-3.39656-9.7259-4.93555-13.1289-1.53902-3.4031-4.26443-8.3531-6.05664-11-1.79218-2.647-5.44264-6.8843-8.11133-9.4161-2.66865-2.5316-6.41777-5.4476-8.33203-6.4785-1.91422-1.0308-3.47908-2.334-3.47851-2.8965.00056-.5624 2.30421-2.3162 5.12109-3.8984 2.81692-1.5821 6.99862-4.7321 9.29101-7 2.29236-2.2679 5.65153-6.2886 7.4668-8.9355s4.66635-7.8222 6.33399-11.5c1.66764-3.6779 4.1636-10.9623 5.54687-16.1875 2.50485-9.4618 2.51872-9.7438 3.26563-69.5.45566-36.4535 1.16925-61.766 1.82031-64.5.58938-2.475 1.4867-5.8501 1.99414-7.5.50748-1.6501 1.73228-5.0251 2.7207-7.5.98839-2.475 2.94779-6.075 4.35547-8 1.40772-1.925 3.46424-4.3471 4.57031-5.3809 1.10608-1.0338 3.8117-2.7099 6.01172-3.7266 3.36371-1.5544 6.58493-1.8522 20.25-1.8711l16.25-.023v-15.5z"/>
      <path d="m915.78906 1354.1895v15.5468 15.5469h16.53125c11.99135 0 17.46361.3897 19.91992 1.416 1.86256.7782 5.20887 3.2934 7.4375 5.5899 2.22864 2.2964 5.19217 6.5067 6.58594 9.3554 1.39378 2.8488 3.50412 8.3192 4.68945 12.1582 2.06911 6.7016 2.18289 9.394 2.83985 67.4805.58443 51.6717.9332 61.5801 2.38476 67.8965.93476 4.0676 3.10015 11.0425 4.8125 15.5 1.71239 4.4574 4.84027 10.8499 6.95118 14.2051 2.11094 3.3551 6.21013 8.342 9.10937 11.084 2.89924 2.7419 7.17192 6.0725 9.49612 7.4003 2.3242 1.3279 4.2294 2.8641 4.2324 3.4141 0 .55-1.9271 2.2208-4.2891 3.7129-2.3619 1.4921-6.024 4.4171-8.13864 6.5-2.11461 2.0829-5.74218 6.7121-8.06054 10.2871-2.3184 3.575-5.45784 9.6344-6.97657 13.4648-1.51872 3.8306-3.37331 9.0251-4.12109 11.543-.74774 2.5179-2.11329 8.1586-3.03516 12.5352-1.39683 6.6316-1.79279 17.3705-2.37695 64.457-.60219 48.5413-.93944 57.3452-2.39063 62.5-.929 3.3-2.64293 8.475-3.81054 11.5s-3.68819 7.6714-5.59961 10.3262c-1.91142 2.6547-5.32237 6.0297-7.58203 7.5-3.98653 2.5939-4.62117 2.6831-21.35938 3.0058l-17.25.334v15.416 15.418h22.36328c12.29991 0 24.78746-.4463 27.75-.9922 2.96259-.5458 8.7588-2.6833 12.88086-4.75 4.79876-2.4059 9.69321-5.9408 13.60547-9.8281 3.36061-3.3391 7.82853-8.7391 9.92973-12 2.1011-3.2609 5.2517-9.3047 7-13.4297 1.7482-4.125 3.9874-10.425 4.9765-14 1.6096-5.8177 1.8711-13.3759 2.4903-72 .5834-55.239.9473-66.6303 2.3261-72.7148.8993-3.9682 2.5385-9.7843 3.6426-12.9258 1.1042-3.1415 3.2433-7.4959 4.7539-9.6758 1.5107-2.1799 4.5191-5.1387 6.6856-6.5742 3.618-2.3973 4.9444-2.6368 16.2675-2.9414l12.3282-.3301v-16.3184-16.3183l-12.9082-.3496c-12.6797-.3442-12.9764-.4062-16.75-3.4239-2.1129-1.6896-5.2981-5.2179-7.0782-7.8418-1.78-2.6238-3.7553-6.6412-4.3906-8.9277s-1.8158-6.8582-2.6211-10.1582c-1.1662-4.7788-1.6158-19.433-2.2109-72-.6409-56.6152-.979-66.7925-2.3809-71.5801-.8988-3.0696-2.9791-8.8434-4.623-12.8301-1.644-3.9866-5.0156-10.2961-7.4922-14.0214-2.47663-3.7254-7.77572-9.8766-11.77541-13.67-4.72308-4.4795-10.04115-8.3005-15.17382-10.8984l-7.9043-4-25.8457-.2969z"/>
    </g>
  </g>
</svg>
